<svg id="e2165270-d70d-4354-9ac9-1848d055b0c2" xmlns="http://www.w3.org/2000/svg" xmlns:xlink="http://www.w3.org/1999/xlink" width="971.4" height="662" viewBox="0 0 971.4 662">
  <defs>
    <style>
      .cls-1 {
        fill: #fec84d;
      }

      .cls-2, .cls-5 {
        fill: #00b1b0;
      }

      .cls-3 {
        fill: url(#linear-gradient);
      }

      .cls-4 {
        fill: #6c63ff;
      }

      .cls-10, .cls-5 {
        isolation: isolate;
      }

      .cls-6 {
        fill: #e0e0e0;
      }

      .cls-7 {
        opacity: 0.7;
      }

      .cls-8 {
        fill: url(#linear-gradient-2);
      }

      .cls-9 {
        fill: #72351c;
      }

      .cls-10 {
        opacity: 0.1;
      }

      .cls-11 {
        fill: #fda57d;
      }

      .cls-12 {
        fill: url(#linear-gradient-3);
      }

      .cls-13 {
        fill: #535461;
      }

      .cls-14 {
        fill: #fff;
      }

      .cls-15 {
        fill: #eee;
      }
    </style>
    <linearGradient id="linear-gradient" x1="979.42" y1="-74.59" x2="979.42" y2="17.22" gradientTransform="matrix(1, 0, 0, -1, -114.28, 545)" gradientUnits="userSpaceOnUse">
      <stop offset="0" stop-color="gray" stop-opacity="0.25"/>
      <stop offset="0.54" stop-color="gray" stop-opacity="0.12"/>
      <stop offset="1" stop-color="gray" stop-opacity="0.1"/>
    </linearGradient>
    <linearGradient id="linear-gradient-2" x1="600.65" y1="13.89" x2="600.65" y2="545" xlink:href="#linear-gradient"/>
    <linearGradient id="linear-gradient-3" x1="485.72" y1="48.4" x2="485.72" y2="286.3" gradientTransform="matrix(1, 0, 0, -1, 0, 664)" xlink:href="#linear-gradient"/>
  </defs>
  <path class="cls-1" d="M145.8,537.8c-7,26.6-31.4,43.2-31.4,43.2s-13.2-26.5-6.2-53.1,31.5-43.2,31.5-43.2S152.8,511.2,145.8,537.8Z" transform="translate(0 0)"/>
  <path class="cls-2" d="M135.2,532.2c-19.5,19.3-21.7,48.8-21.7,48.8s29.5-1.8,49.1-21.1S184.3,511,184.3,511,154.8,512.9,135.2,532.2Z" transform="translate(0 0)"/>
  <rect class="cls-2" x="68.1" y="573.2" width="106.9" height="45.5" rx="15.2"/>
  <path class="cls-3" d="M895.5,544.2V527.8h-82v75.8a16,16,0,0,0,16,16h50a16,16,0,0,0,16-16h0V586.8a21.3,21.3,0,1,0,0-42.6Zm0,34.4V552.4a13.1,13.1,0,0,1,0,26.2Z" transform="translate(0 0)"/>
  <path class="cls-4" d="M892.9,546.7a19.5,19.5,0,1,0,19.4,19.5A19.5,19.5,0,0,0,892.9,546.7Zm0,31.5a12,12,0,1,1,11.9-12h0A11.9,11.9,0,0,1,892.9,578.2Z" transform="translate(0 0)"/>
  <path class="cls-5" d="M892.9,546.7a19.5,19.5,0,1,0,19.4,19.5A19.5,19.5,0,0,0,892.9,546.7Zm0,31.5a12,12,0,1,1,11.9-12h0A11.9,11.9,0,0,1,892.9,578.2Z" transform="translate(0 0)"/>
  <path class="cls-2" d="M818,531.8h74.9v74a9.8,9.8,0,0,1-9.8,9.8H827.8a9.8,9.8,0,0,1-9.8-9.8h0v-74Z" transform="translate(0 0)"/>
  <rect class="cls-6" y="615.6" width="971.4" height="32.93"/>
  <g class="cls-7">
    <path class="cls-8" d="M639,395.3c-10.4-37.8-69.5-65.4-113.9-71.5V290.6h.2v-1.2a111.2,111.2,0,0,0,67-70.2,127.4,127.4,0,0,0,7.1-15.5c4.8-1.7,8.4-9.5,8.4-18.9a34.1,34.1,0,0,0-1.4-9.5,116,116,0,0,0,.9-14.4,119.9,119.9,0,0,0-39.7-89.4,23.1,23.1,0,0,0,.4-5.9c-1-15.5-17.6-26-33.1-26.7a33.1,33.1,0,0,0,5.5-34.7c-9.9,14.5-30.3,16-47.8,16.1,7.6-2.9,11-13.4,6.6-20.2-18.3,24.5-54,29.1-75.8,50.6a64.9,64.9,0,0,0-11.8,16.1,120.4,120.4,0,0,0-45.3,94.1,114.4,114.4,0,0,0,.9,14.3,34.8,34.8,0,0,0-1.4,9.6c0,9.4,3.6,17.3,8.4,19a107.9,107.9,0,0,0,7.2,15.4,110.6,110.6,0,0,0,66.5,70v33.8a2.2,2.2,0,0,0,.1.8c-44.6,6-104.1,33.8-114.4,71.9-9,32.9-18.5,69-23.2,90.3,40.6,28.5,125.7,45.2,179,45.2,50.7,0,133.6-15.1,172.9-41.1C658.1,466.7,648.3,429,639,395.3Z" transform="translate(0 0)"/>
  </g>
  <path class="cls-2" d="M489.3,521.7c48.9,0,128.8-14.6,166.8-39.6-4.1-22.5-13.6-58.9-22.5-91.4C622.2,349.2,550,320.5,507,320.5H465.6c-43.2,0-115.4,28.9-126.6,70.5-8.6,31.8-17.8,66.6-22.4,87.1C355.8,505.6,437.9,521.7,489.3,521.7Z" transform="translate(0 0)"/>
  <circle class="cls-9" cx="486.8" cy="164.5" r="116.2"/>
  <path class="cls-10" d="M449.3,261.3h74.5v59.6a37.2,37.2,0,0,1-37.3,37.2h0a37.2,37.2,0,0,1-37.2-37.2V261.3Z" transform="translate(0 0)"/>
  <path class="cls-11" d="M460,258.6h53.1a10.6,10.6,0,0,1,10.7,10.6v48.9a37.3,37.3,0,0,1-37.3,37.3h0a37.3,37.3,0,0,1-37.2-37.3V269.2A10.6,10.6,0,0,1,460,258.6Z" transform="translate(0 0)"/>
  <path class="cls-10" d="M449.4,289.4a106.7,106.7,0,0,0,74.5.2v-9.1H449.4Z" transform="translate(0 0)"/>
  <circle class="cls-11" cx="486.8" cy="187.7" r="106.8"/>
  <path class="cls-10" d="M410.8,90.6s45,91.3,171.9,38.2L553.1,82.5,500.7,63.7Z" transform="translate(0 0)"/>
  <path class="cls-9" d="M410.8,89.2s45,91.3,171.9,38.3L553.1,81.2,500.7,62.4Z" transform="translate(0 0)"/>
  <path class="cls-9" d="M410.4,83.1a60.2,60.2,0,0,1,15.3-24.9c21-20.8,55.4-25.1,73-48.8,4.3,6.6,1,16.7-6.3,19.5,16.9-.1,36.5-1.6,46.1-15.5a31.7,31.7,0,0,1-5.4,33.4c15,.6,31,10.8,32,25.8.7,10-5.6,19.4-13.8,25.2s-18.1,8.3-27.9,10.5C494.9,114.5,391.8,140.9,410.4,83.1Z" transform="translate(0 0)"/>
  <path class="cls-9" d="M593.6,188.6h-2.9l-55,49c-53.1-24.8-92,0-92,0l-57.8-47-5.8.7a106.8,106.8,0,0,0,213.5-2.7Zm-107,67.8c-20.7,0-37.6-4.2-37.6-9.4s16.9-9.4,37.6-9.4,37.6,4.2,37.6,9.4S507.4,256.4,486.6,256.4Z" transform="translate(0 0)"/>
  <ellipse class="cls-11" cx="380" cy="187.6" rx="9.9" ry="18.6"/>
  <ellipse class="cls-11" cx="593.5" cy="187.6" rx="9.9" ry="18.6"/>
  <g class="cls-7">
    <rect class="cls-12" x="279.2" y="377.7" width="413.1" height="237.89" rx="14.5"/>
  </g>
  <rect class="cls-13" x="286.6" y="382.1" width="398.2" height="233.5" rx="26.8"/>
  <circle class="cls-14" cx="485.7" cy="498.8" r="13.5"/>
  <rect class="cls-6" x="41.2" y="648.5" width="889.1" height="13.47"/>
  <rect class="cls-10" x="41.2" y="648.5" width="889.1" height="4.49"/>
  <path class="cls-10" d="M879.4,531.8V601a14.6,14.6,0,0,1-14.6,14.6h7.5A14.6,14.6,0,0,0,886.9,601V531.8Z" transform="translate(0 0)"/>
  <path class="cls-15" d="M832.8,476c-1.3.2-2.7.5-3.3,1.7s.8,3.7,2.4,5,6.2,4.4,8.2,7.6,2.7,7.6.4,10.6-9.8,4.8-10.5,9.6c-.4,3.1,2.3,5.8,5,7.4,6.8,3.8,15.5,4.9,20.3,10.9,2.1-4.2,6.6-6.6,11.1-7.6s9.2-.9,13.7-1.6c1.5-.2,3.2-.7,3.8-2s-2.3-5.7-1.1-8.3,3.8-1.9,5.8-2.6,4.7-5.6,3.8-9.1-3.6-6.1-6.4-8.3c-7.6-6-16.7-9.5-26-12-4.3-1.2-9.3-3-13.8-3.2S837,475.3,832.8,476Z" transform="translate(0 0)"/>
</svg>
